<?xml version="1.0" standalone="no"?>
<!DOCTYPE svg PUBLIC "-//W3C//DTD SVG 20010904//EN" "http://www.w3.org/TR/2001/REC-SVG-20010904/DTD/svg10.dtd">
<svg version="1.0" xmlns="http://www.w3.org/2000/svg"
    width="40.000000pt" height="40.000000pt" viewBox="0 0 1600.000000 1600.000000"
    preserveAspectRatio="xMidYMid meet">

    <g transform="translate(0.000000,1600.000000) scale(0.100000,-0.100000)"
        fill="black" stroke="none">
        <path
            d="M7790 14663 c-2132 -67 -4092 -1144 -5302 -2913 -1235 -1805 -1497
-4133 -695 -6185 445 -1141 1221 -2158 2212 -2902 1616 -1212 3693 -1622 5660
-1118 1455 372 2750 1237 3660 2445 711 944 1159 2059 1295 3225 58 502 60
1040 4 1535 -196 1749 -1080 3349 -2459 4455 -1008 808 -2224 1303 -3515 1430
-85 8 -256 19 -380 25 -213 9 -278 10 -480 3z m580 -1862 c691 -124 1269 -559
1576 -1186 102 -209 163 -408 200 -650 22 -148 22 -451 0 -600 -45 -294 -146
-578 -290 -815 -361 -591 -968 -973 -1650 -1039 -888 -87 -1750 393 -2146
1194 -153 310 -222 608 -222 960 0 268 32 464 114 705 257 752 922 1312 1703
1434 153 24 156 24 385 21 163 -2 243 -8 330 -24z m110 -6156 c590 -49 1248
-177 1835 -355 962 -293 1708 -721 2058 -1182 l59 -77 -63 -88 c-435 -615
-968 -1115 -1599 -1500 -721 -440 -1541 -701 -2395 -763 -200 -14 -591 -12
-795 5 -325 26 -609 74 -905 150 -1237 318 -2298 1053 -3044 2108 l-63 88 43
57 c241 319 651 618 1189 867 836 387 2004 664 2995 709 137 6 502 -4 685 -19z" />
    </g>
</svg>